<svg width="263" height="114" viewBox="0 0 263 114" fill="none" xmlns="http://www.w3.org/2000/svg">
<path d="M92.7336 49.5284C92.7319 49.374 92.7588 49.2205 92.813 49.076C92.8622 48.9426 92.9423 48.8229 93.0466 48.7266C93.1497 48.6368 93.2685 48.5668 93.397 48.5203C93.5301 48.4746 93.6698 48.4516 93.8104 48.4523C93.9449 48.452 94.0785 48.475 94.2052 48.5203C94.3308 48.5683 94.4471 48.6382 94.5486 48.7266C94.6565 48.8242 94.7414 48.9447 94.7972 49.0793C94.8529 49.214 94.8781 49.3594 94.8709 49.505V57.7717C94.8762 58.5037 94.7875 59.2334 94.607 59.9427C94.4386 60.5952 94.1707 61.2176 93.8128 61.7878C93.4747 62.3277 93.0662 62.8197 92.5981 63.2508C92.1374 63.6715 91.62 64.0251 91.0611 64.3011C90.506 64.5792 89.9204 64.7908 89.3161 64.9318C88.0979 65.2131 86.8319 65.2131 85.6137 64.9318C85.0102 64.7908 84.4253 64.5791 83.8711 64.3011C83.3125 64.0257 82.7951 63.6729 82.3341 63.2531C81.8646 62.8218 81.4553 62.3289 81.1171 61.7878C80.76 61.2174 80.4929 60.595 80.3252 59.9427C80.1434 59.2336 80.0547 58.5038 80.0612 57.7717V49.43C80.0589 49.2876 80.0859 49.1463 80.1406 49.015C80.1971 48.8907 80.2829 48.7821 80.3906 48.6985C80.4921 48.6165 80.6077 48.5537 80.7316 48.5133C80.9921 48.4288 81.2724 48.4288 81.5328 48.5133C81.6603 48.5551 81.7784 48.6211 81.8809 48.7079C81.9876 48.7941 82.0718 48.9052 82.1262 49.0314C82.1811 49.1643 82.2082 49.3072 82.2056 49.4511V57.7717C82.2016 58.2973 82.2644 58.8212 82.3925 59.3308C82.5099 59.7918 82.6966 60.2321 82.9461 60.6367C83.1834 61.0204 83.471 61.3705 83.801 61.6776C84.1262 61.9787 84.4928 62.2314 84.8896 62.4279C85.2854 62.6331 85.7042 62.7905 86.1369 62.8968C86.5727 62.9987 87.0187 63.0499 87.4661 63.0492C88.3584 63.0516 89.2388 62.8428 90.0356 62.4396C90.4312 62.2423 90.7969 61.9897 91.1218 61.6894C91.4534 61.3831 91.7418 61.0329 91.9791 60.6484C92.2283 60.2437 92.415 59.8034 92.5327 59.3425C92.6588 58.8326 92.7208 58.3088 92.7172 57.7834V49.5284H92.7336Z" fill="#00C895"/>
<path d="M105.388 62.99C106.671 62.9497 107.896 62.4529 108.843 61.5896C109.762 60.7353 110.221 59.6009 110.221 58.1864V55.7146C110.239 55.0867 110.124 54.4622 109.884 53.8812C109.644 53.3003 109.285 52.7759 108.829 52.3418C107.877 51.4358 106.615 50.9222 105.299 50.904C103.874 50.904 102.733 51.2214 101.876 51.8563C101.064 52.4342 100.435 53.231 100.062 54.1531C99.7262 54.9684 99.5474 55.8394 99.5349 56.7206C99.5349 58.2191 99.8473 59.4367 100.472 60.3735C101.019 61.2448 101.805 61.9415 102.738 62.3808C103.566 62.7712 104.469 62.979 105.385 62.99H105.388ZM105.202 48.7519C106.232 48.7422 107.249 48.9665 108.178 49.4078C109.039 49.8012 109.754 50.4545 110.221 51.2751V45.064C110.215 44.9144 110.243 44.7653 110.302 44.6276C110.361 44.49 110.45 44.3671 110.563 44.2681C110.784 44.0712 111.072 43.9652 111.369 43.9717C111.661 43.9649 111.944 44.0712 112.159 44.2681C112.267 44.3697 112.352 44.4933 112.409 44.6307C112.465 44.768 112.491 44.9159 112.484 45.064V63.737C112.491 63.8838 112.468 64.0305 112.414 64.1676C112.361 64.3046 112.28 64.4291 112.175 64.5329C112.062 64.6349 111.93 64.7137 111.787 64.7646C111.643 64.8154 111.491 64.8374 111.339 64.8293C110.636 64.8293 110.284 64.4652 110.284 63.737V62.4555C109.816 63.3482 109.065 64.062 108.148 64.4862C107.228 64.9211 106.223 65.1453 105.205 65.1421C103.81 65.1604 102.434 64.822 101.208 64.1594C100.001 63.4949 99.0075 62.5036 98.3424 61.3001C97.6301 60.0553 97.274 58.5568 97.274 56.8046C97.2878 55.551 97.5563 54.3131 98.0636 53.1658C98.6121 51.9011 99.5048 50.8144 100.641 50.0287C101.826 49.1744 103.349 48.7473 105.21 48.7473L105.202 48.7519Z" fill="#00C895"/>
<path d="M114.553 49.9697C114.503 49.8466 114.481 49.7135 114.488 49.5804C114.487 49.4254 114.52 49.2721 114.585 49.1322C114.651 48.9923 114.747 48.8696 114.866 48.7734C115.11 48.5607 115.422 48.4458 115.744 48.4501C115.948 48.4489 116.149 48.5043 116.325 48.6105C116.506 48.7222 116.644 48.8938 116.716 49.0966L122.709 61.4239L128.764 49.066C128.844 48.8757 128.982 48.7167 129.158 48.6129C129.333 48.5046 129.534 48.4483 129.739 48.4501C130.028 48.4494 130.309 48.5456 130.538 48.7238C130.652 48.8058 130.745 48.9152 130.808 49.0424C130.871 49.1695 130.902 49.3105 130.899 49.453C130.892 49.5976 130.86 49.7398 130.804 49.873L123.714 64.3995C123.617 64.6258 123.456 64.8173 123.251 64.9493C123.07 65.073 122.857 65.1402 122.639 65.1428C122.241 65.1428 121.906 64.9068 121.635 64.4349L114.553 49.9839V49.9697Z" fill="#00C895"/>
<path fill-rule="evenodd" clip-rule="evenodd" d="M39.8449 55.6032L54.4945 40.5453C54.6719 40.3636 54.883 40.2194 55.1155 40.1209C55.3481 40.0225 55.5975 39.9718 55.8495 39.9718C56.1014 39.9718 56.3508 40.0225 56.5834 40.1209C56.8159 40.2194 57.027 40.3636 57.2044 40.5453L71.8517 55.6032C72.2101 55.976 72.4107 56.4764 72.4107 56.9975C72.4107 57.5186 72.2101 58.019 71.8517 58.3918L57.1951 73.4473C57.0175 73.6291 56.8062 73.7734 56.5735 73.8718C56.3407 73.9703 56.0911 74.021 55.839 74.021C55.5868 74.021 55.3372 73.9703 55.1045 73.8718C54.8717 73.7734 54.6604 73.6291 54.4828 73.4473L39.8356 58.3918C39.4772 58.019 39.2766 57.5186 39.2766 56.9975C39.2766 56.4764 39.4772 55.976 39.8356 55.6032H39.8449ZM38.3839 54.1166L53.0475 39.0469C53.4137 38.6721 53.8493 38.3747 54.3292 38.1717C54.8091 37.9688 55.3238 37.8643 55.8436 37.8643C56.3634 37.8643 56.8781 37.9688 57.358 38.1717C57.8379 38.3747 58.2735 38.6721 58.6398 39.0469L73.301 54.1166C74.0418 54.8862 74.4566 55.9199 74.4566 56.9963C74.4566 58.0727 74.0418 59.1064 73.301 59.876L58.6398 74.9481C58.2732 75.3244 57.8368 75.623 57.3558 75.8269C56.8749 76.0307 56.3589 76.1357 55.8378 76.1357C55.3167 76.1357 54.8007 76.0307 54.3198 75.8269C53.8388 75.623 53.4024 75.3244 53.0358 74.9481L38.3839 59.876C37.6431 59.1064 37.2283 58.0727 37.2283 56.9963C37.2283 55.9199 37.6431 54.8862 38.3839 54.1166Z" fill="#00C895"/>
<path d="M55.6278 60.3028C55.7423 60.4077 55.8352 60.5353 55.901 60.6778C55.9667 60.8204 56.004 60.9751 56.0105 61.1328C56.0106 61.2857 55.9794 61.4369 55.9189 61.5766C55.8585 61.7164 55.7703 61.8415 55.6598 61.9438C55.5563 62.0539 55.4324 62.1415 55.2954 62.2014C55.1584 62.2613 55.0111 62.2924 54.8622 62.2928C54.5522 62.2793 54.2578 62.1492 54.0348 61.9273L48.5477 56.3841C48.3995 56.2793 48.2765 56.1411 48.188 55.9802C48.0994 55.8192 48.0476 55.6397 48.0365 55.4551C48.0466 55.2479 48.1004 55.0455 48.1942 54.8618C48.288 54.6782 48.4196 54.5178 48.5797 54.3917L54.0967 48.8814C54.206 48.7473 54.3424 48.6393 54.4963 48.5648C54.6503 48.4903 54.8181 48.4511 54.9883 48.45C55.1248 48.4497 55.2601 48.4775 55.386 48.5317C55.512 48.586 55.6261 48.6656 55.7217 48.7659C55.823 48.86 55.9038 48.975 55.9591 49.1034C56.0144 49.2317 56.0428 49.3706 56.0426 49.511C56.0178 49.836 55.8823 50.1417 55.6598 50.3739L50.5234 55.4197L55.6278 60.3004V60.3028Z" fill="#00C895"/>
<path d="M56.0526 63.1528C55.9383 63.2575 55.8456 63.3847 55.7798 63.5268C55.7141 63.6689 55.6767 63.8232 55.6698 63.9804C55.6696 64.1337 55.7007 64.2854 55.7611 64.4255C55.8216 64.5656 55.9099 64.6911 56.0205 64.7939C56.1246 64.9045 56.2493 64.9924 56.3871 65.0524C56.5249 65.1123 56.6731 65.1431 56.8227 65.1428C57.133 65.1277 57.4276 64.998 57.6524 64.7774L63.1373 59.2341C63.2853 59.1292 63.4082 58.991 63.4967 58.8301C63.5853 58.6692 63.6371 58.4897 63.6484 58.3051C63.6383 58.0979 63.5845 57.8955 63.4907 57.7119C63.3969 57.5282 63.2653 57.3678 63.1052 57.2417L57.5883 51.7315C57.4785 51.5973 57.3417 51.4892 57.1874 51.4147C57.033 51.3402 56.8648 51.3011 56.6944 51.3C56.558 51.2998 56.423 51.3274 56.2971 51.3812C56.1712 51.4351 56.057 51.514 55.9609 51.6136C55.8597 51.7081 55.779 51.8235 55.7241 51.9523C55.6692 52.0811 55.6413 52.2204 55.6423 52.361C55.6675 52.686 55.803 52.9915 56.0251 53.224L61.1592 58.2698L56.0572 63.1505L56.0526 63.1528Z" fill="#00C895"/>
<path d="M152.681 49.8766C151.6 49.2986 150.381 49.0567 149.17 49.1799C147.959 49.3031 146.808 49.7862 145.856 50.5711C144.976 51.2631 144.279 52.1745 143.83 53.2205C143.387 54.27 143.163 55.4046 143.172 56.5502C143.155 57.7987 143.426 59.0333 143.963 60.151C144.486 61.2185 145.296 62.1065 146.294 62.7076C147.412 63.365 148.681 63.6939 149.965 63.659C151.02 63.6752 152.061 63.402 152.982 62.867C153.85 62.3669 154.575 61.6374 155.083 60.7527C155.589 59.8743 155.852 58.8691 155.845 57.8464V55.0875C155.87 53.9921 155.583 52.9134 155.019 51.9865C154.456 51.0596 153.641 50.3256 152.677 49.8766H152.681ZM156.916 63.923C156.954 65.2528 156.615 66.565 155.941 67.6974C155.295 68.7368 154.368 69.5557 153.276 70.0519C152.08 70.5925 150.787 70.8618 149.483 70.8415C148.395 70.8594 147.311 70.6989 146.271 70.3658C145.311 70.0268 144.433 69.4768 143.697 68.7533C143.635 68.6981 143.584 68.6304 143.548 68.5545C143.511 68.4785 143.489 68.3957 143.484 68.311C143.481 68.2456 143.492 68.1802 143.518 68.1203C143.543 68.0604 143.582 68.0076 143.631 67.9661C143.735 67.8815 143.864 67.8369 143.996 67.8401C144.138 67.8335 144.278 67.878 144.393 67.9661C145.118 68.5784 145.937 69.0608 146.815 69.3931C147.679 69.6635 148.579 69.7911 149.481 69.7713C150.574 69.7841 151.658 69.5639 152.665 69.1243C153.606 68.714 154.412 68.028 154.982 67.1503C155.583 66.1916 155.886 65.0655 155.852 63.923V60.9953C155.393 62.1636 154.573 63.1413 153.521 63.7755C152.446 64.4303 151.219 64.769 149.972 64.7554C148.627 64.7637 147.3 64.4375 146.102 63.804C144.902 63.1732 143.899 62.2047 143.206 61.0095C142.475 59.7776 142.11 58.3085 142.11 56.6025C142.077 54.8969 142.51 53.2164 143.36 51.7555C144.205 50.3443 145.465 49.2527 146.955 48.6423C147.871 48.2421 148.856 48.0382 149.85 48.0429C151.183 48.0466 152.489 48.4292 153.627 49.1488C154.644 49.8093 155.426 50.7965 155.852 51.96V48.8349C155.852 48.4544 156.024 48.2665 156.37 48.2665C156.443 48.2627 156.516 48.2749 156.584 48.3021C156.653 48.3294 156.714 48.3711 156.766 48.4246C156.818 48.4782 156.858 48.5424 156.884 48.613C156.911 48.6837 156.922 48.7593 156.919 48.8349V63.923H156.916Z" fill="#2B2A29"/>
<path d="M163.194 52.4515C163.519 51.2683 164.252 50.2426 165.26 49.5613C166.287 48.8265 167.517 48.4379 168.774 48.4504C169.143 48.4504 169.329 48.6293 169.329 48.9823C169.329 49.3353 169.143 49.5142 168.774 49.5142C166.917 49.5142 165.524 50.1968 164.596 51.5618C163.668 52.9269 163.203 54.6411 163.203 56.7044V63.7652C163.206 63.8401 163.194 63.9147 163.168 63.9847C163.141 64.0547 163.101 64.1185 163.05 64.1724C163.002 64.2223 162.944 64.2618 162.88 64.2885C162.816 64.3152 162.748 64.3285 162.679 64.3277C162.605 64.3318 162.531 64.3201 162.462 64.2932C162.393 64.2664 162.33 64.2251 162.278 64.172C162.225 64.119 162.185 64.0553 162.158 63.9852C162.132 63.9151 162.12 63.8402 162.124 63.7652V48.9823C162.123 48.9126 162.136 48.8435 162.162 48.7791C162.189 48.7148 162.228 48.6566 162.277 48.6081C162.33 48.5553 162.393 48.5141 162.462 48.487C162.531 48.4598 162.605 48.4474 162.679 48.4504C162.818 48.451 162.951 48.5072 163.049 48.6069C163.147 48.7065 163.203 48.8414 163.203 48.9823V52.4515H163.194Z" fill="#2B2A29"/>
<path d="M180.748 49.4001C180.076 49.2313 179.387 49.1459 178.694 49.1459C178.022 49.1488 177.353 49.2342 176.702 49.4001C175.194 49.8 173.888 50.744 173.037 52.0494C172.355 53.0651 171.915 54.2229 171.75 55.4345C171.585 56.6461 171.7 57.8793 172.085 59.0398C172.355 59.8413 172.774 60.5852 173.318 61.2329C173.969 62.01 174.792 62.6257 175.722 63.0316C176.671 63.4512 177.699 63.6643 178.737 63.6565C179.786 63.6623 180.825 63.4469 181.785 63.0245C182.721 62.6214 183.549 62.0054 184.203 61.2258C184.746 60.583 185.164 59.8449 185.436 59.0493C185.711 58.247 185.85 57.4047 185.848 56.5568C185.859 54.9526 185.379 53.3833 184.472 52.0589C183.606 50.7407 182.278 49.7927 180.748 49.4001ZM178.725 64.7353C177.517 64.7476 176.321 64.5005 175.217 64.0106C174.147 63.5298 173.197 62.8181 172.435 61.9268C171.167 60.3683 170.493 58.4121 170.531 56.4048C170.53 55.2129 170.767 54.0327 171.229 52.9333C171.68 51.8373 172.364 50.8522 173.235 50.0464C174.114 49.2351 175.175 48.6453 176.329 48.3261C177.114 48.1297 177.922 48.0347 178.732 48.0434C179.534 48.0454 180.332 48.1403 181.112 48.3261C182.739 48.7637 184.166 49.7439 185.158 51.1038C186.182 52.472 186.795 54.1029 186.926 55.806C187.054 58.2058 186.42 60.2461 185.022 61.9268C184.261 62.818 183.312 63.5297 182.242 64.0106C181.139 64.5005 179.942 64.7476 178.735 64.7353H178.725Z" fill="#2B2A29"/>
<path d="M191.647 57.8653C191.634 58.9167 191.922 59.9499 192.478 60.8428C193.018 61.7177 193.776 62.4373 194.678 62.9311C195.58 63.4298 196.595 63.688 197.626 63.6808C198.774 63.6655 199.899 63.357 200.894 62.7845C201.998 62.1753 202.929 61.2945 203.598 60.2256C204.322 59.0647 204.69 57.717 204.656 56.3494V49.018C204.656 48.6396 204.833 48.4504 205.19 48.4504C205.266 48.4474 205.341 48.46 205.411 48.4875C205.481 48.515 205.545 48.5567 205.598 48.6101C205.651 48.6634 205.693 48.7272 205.72 48.7974C205.747 48.8677 205.759 48.9428 205.756 49.018V63.9173C205.757 63.9876 205.744 64.0573 205.716 64.122C205.689 64.1867 205.648 64.2451 205.597 64.2933C205.544 64.3465 205.481 64.3881 205.411 64.4154C205.341 64.4426 205.266 64.4551 205.19 64.4518C204.833 64.4518 204.656 64.2626 204.656 63.8866V59.4877C204.376 60.5804 203.825 61.5849 203.054 62.4085C202.339 63.1642 201.471 63.7591 200.508 64.1538C199.633 64.5277 198.693 64.7254 197.742 64.7356C196.529 64.7408 195.33 64.4664 194.24 63.9339C193.147 63.409 192.222 62.5901 191.569 61.5689C190.87 60.4612 190.515 59.172 190.547 57.863V49.018C190.547 48.642 190.724 48.4528 191.082 48.4528C191.157 48.449 191.232 48.4611 191.302 48.4882C191.373 48.5153 191.436 48.5568 191.49 48.61C191.543 48.6633 191.585 48.7271 191.612 48.7973C191.639 48.8676 191.651 48.9428 191.647 49.018V57.8772V57.8653Z" fill="#2B2A29"/>
<path d="M212.018 57.7236C212.005 58.7355 212.269 59.7309 212.78 60.597C213.295 61.4561 214.022 62.1616 214.887 62.6427C215.815 63.1611 216.851 63.4441 217.908 63.4681C219.192 63.5247 220.466 63.211 221.584 62.5628C222.584 61.9684 223.395 61.0905 223.918 60.035C224.453 58.9292 224.721 57.7086 224.702 56.475C224.702 54.8509 224.345 53.4871 223.633 52.3835C222.992 51.3439 222.092 50.4975 221.026 49.931C220.119 49.4313 219.11 49.1582 218.081 49.1339C217.047 49.1262 216.025 49.3619 215.094 49.8229C214.141 50.2825 213.341 51.0169 212.791 51.936C212.24 52.855 211.965 53.9186 211.997 54.9959V57.7142L212.018 57.7236ZM221.141 63.9995C220.286 64.3757 219.209 64.5638 217.908 64.5638C216.663 64.5755 215.437 64.2406 214.363 63.595C213.311 62.9669 212.49 62.0006 212.029 60.8462V69.8709C212.029 70.2472 211.857 70.4353 211.51 70.4353C211.437 70.4383 211.364 70.4257 211.296 70.3984C211.228 70.371 211.166 70.3295 211.114 70.2765C211.063 70.2235 211.022 70.16 210.996 70.0902C210.97 70.0204 210.958 69.9457 210.961 69.8709V48.927C210.958 48.852 210.97 48.7771 210.996 48.7071C211.023 48.6371 211.063 48.5734 211.115 48.5202C211.167 48.4679 211.229 48.4269 211.297 48.3998C211.365 48.3728 211.437 48.3601 211.51 48.3626C211.857 48.3626 212.029 48.5508 212.029 48.927V51.925C212.457 50.7752 213.239 49.7994 214.258 49.1457C215.396 48.4309 216.704 48.0495 218.039 48.0428C219.4 48.0428 220.736 48.4165 221.908 49.125C223.08 49.8334 224.045 50.8508 224.702 52.0708C225.432 53.4391 225.801 54.9793 225.77 56.5385C225.787 58.1398 225.364 59.7139 224.55 61.0814C223.765 62.4214 222.56 63.4505 221.131 64.0018L221.141 63.9995Z" fill="#2B2A29"/>
<path d="M136.273 70.367C136.273 70.4932 136.222 70.6142 136.131 70.7035C136.04 70.7927 135.917 70.8428 135.788 70.8428C135.659 70.8428 135.536 70.7927 135.445 70.7035C135.354 70.6142 135.303 70.4932 135.303 70.367H136.273ZM135.303 70.367L135.533 43.6329H136.504L136.261 70.3647L135.303 70.367ZM135.533 43.6329C135.533 43.5704 135.546 43.5085 135.57 43.4508C135.595 43.3931 135.63 43.3406 135.675 43.2965C135.721 43.2523 135.774 43.2172 135.833 43.1933C135.892 43.1694 135.955 43.1571 136.019 43.1571C136.082 43.1571 136.145 43.1694 136.204 43.1933C136.263 43.2172 136.317 43.2523 136.362 43.2965C136.407 43.3406 136.442 43.3931 136.467 43.4508C136.491 43.5085 136.504 43.5704 136.504 43.6329H135.533Z" fill="#2B2A29"/>
</svg>
