<svg width="40" height="40" viewBox="0 0 40 40" fill="none" xmlns="http://www.w3.org/2000/svg">
<circle cx="20" cy="20" r="20" fill="#7749F8"/>
<path fill-rule="evenodd" clip-rule="evenodd" d="M12.6875 28.875C12.6875 28.875 11.125 28.875 11.125 27.3125C11.125 25.75 12.6875 21.0625 20.5 21.0625C28.3125 21.0625 29.875 25.75 29.875 27.3125C29.875 28.875 28.3125 28.875 28.3125 28.875H12.6875ZM20.5 19.5C21.7432 19.5 22.9355 19.0061 23.8146 18.1271C24.6936 17.248 25.1875 16.0557 25.1875 14.8125C25.1875 13.5693 24.6936 12.377 23.8146 11.4979C22.9355 10.6189 21.7432 10.125 20.5 10.125C19.2568 10.125 18.0645 10.6189 17.1854 11.4979C16.3064 12.377 15.8125 13.5693 15.8125 14.8125C15.8125 16.0557 16.3064 17.248 17.1854 18.1271C18.0645 19.0061 19.2568 19.5 20.5 19.5Z" fill="#EBE5FC"/>
</svg>
